<mxfile host="app.diagrams.net" agent="Mozilla/5.0 (Windows NT 10.0; Win64; x64) AppleWebKit/537.36 (KHTML, like Gecko) Chrome/139.0.0.0 Safari/537.36" version="28.1.1">
  <diagram name="Page-1" id="W9JfT17BYu0buxzHSnPP">
    <mxGraphModel grid="1" page="1" gridSize="10" guides="1" tooltips="1" connect="1" arrows="1" fold="1" pageScale="1" pageWidth="850" pageHeight="1100" math="0" shadow="0">
      <root>
        <mxCell id="0" />
        <mxCell id="1" parent="0" />
        <mxCell id="jgxaxADgwJe4Hzebw44l-14" value="" style="group;labelBorderColor=none;" vertex="1" connectable="0" parent="1">
          <mxGeometry x="310" y="190" width="200" height="320" as="geometry" />
        </mxCell>
        <mxCell id="jgxaxADgwJe4Hzebw44l-8" value="&lt;b&gt;Event Logging Infrastructure&lt;/b&gt;" style="rounded=0;whiteSpace=wrap;html=1;align=center;labelPosition=center;verticalLabelPosition=top;verticalAlign=bottom;" vertex="1" parent="jgxaxADgwJe4Hzebw44l-14">
          <mxGeometry width="200" height="320" as="geometry" />
        </mxCell>
        <mxCell id="jgxaxADgwJe4Hzebw44l-9" value="" style="group" vertex="1" connectable="0" parent="jgxaxADgwJe4Hzebw44l-14">
          <mxGeometry x="40" y="40" width="130" height="240" as="geometry" />
        </mxCell>
        <mxCell id="jgxaxADgwJe4Hzebw44l-4" style="edgeStyle=orthogonalEdgeStyle;rounded=0;orthogonalLoop=1;jettySize=auto;html=1;exitX=0.5;exitY=1;exitDx=0;exitDy=0;entryX=0.5;entryY=0;entryDx=0;entryDy=0;" edge="1" parent="jgxaxADgwJe4Hzebw44l-9" source="jgxaxADgwJe4Hzebw44l-2" target="jgxaxADgwJe4Hzebw44l-3">
          <mxGeometry relative="1" as="geometry" />
        </mxCell>
        <mxCell id="jgxaxADgwJe4Hzebw44l-2" value="Event Producer Plugin" style="rounded=1;whiteSpace=wrap;html=1;fillColor=#d5e8d4;strokeColor=#82b366;" vertex="1" parent="jgxaxADgwJe4Hzebw44l-9">
          <mxGeometry width="120" height="60" as="geometry" />
        </mxCell>
        <mxCell id="jgxaxADgwJe4Hzebw44l-6" style="edgeStyle=orthogonalEdgeStyle;rounded=0;orthogonalLoop=1;jettySize=auto;html=1;exitX=0.5;exitY=1;exitDx=0;exitDy=0;entryX=0.5;entryY=0;entryDx=0;entryDy=0;" edge="1" parent="jgxaxADgwJe4Hzebw44l-9" source="jgxaxADgwJe4Hzebw44l-3" target="jgxaxADgwJe4Hzebw44l-5">
          <mxGeometry relative="1" as="geometry" />
        </mxCell>
        <mxCell id="jgxaxADgwJe4Hzebw44l-3" value="AWS SQS to Neptune Forwarder" style="rounded=1;whiteSpace=wrap;html=1;fillColor=#d5e8d4;strokeColor=#82b366;" vertex="1" parent="jgxaxADgwJe4Hzebw44l-9">
          <mxGeometry y="80" width="120" height="60" as="geometry" />
        </mxCell>
        <mxCell id="jgxaxADgwJe4Hzebw44l-5" value="Neptune" style="ellipse;whiteSpace=wrap;html=1;" vertex="1" parent="jgxaxADgwJe4Hzebw44l-9">
          <mxGeometry y="160" width="120" height="80" as="geometry" />
        </mxCell>
        <mxCell id="Qaop3SIBf-g17rU-zxT1-14" value="" style="image;html=1;image=img/lib/clip_art/general/Star_128x128.png" vertex="1" parent="jgxaxADgwJe4Hzebw44l-9">
          <mxGeometry x="110" y="70" width="20" height="20" as="geometry" />
        </mxCell>
        <mxCell id="Qaop3SIBf-g17rU-zxT1-46" value="" style="image;html=1;image=img/lib/clip_art/general/Star_128x128.png" vertex="1" parent="jgxaxADgwJe4Hzebw44l-9">
          <mxGeometry x="110" y="-10" width="20" height="20" as="geometry" />
        </mxCell>
        <mxCell id="jgxaxADgwJe4Hzebw44l-32" style="edgeStyle=orthogonalEdgeStyle;rounded=1;orthogonalLoop=1;jettySize=auto;html=1;exitX=0.75;exitY=1;exitDx=0;exitDy=0;entryX=0.5;entryY=0;entryDx=0;entryDy=0;curved=0;" edge="1" parent="1" source="jgxaxADgwJe4Hzebw44l-18" target="jgxaxADgwJe4Hzebw44l-21">
          <mxGeometry relative="1" as="geometry" />
        </mxCell>
        <mxCell id="jgxaxADgwJe4Hzebw44l-56" style="edgeStyle=orthogonalEdgeStyle;rounded=1;orthogonalLoop=1;jettySize=auto;html=1;exitX=0.25;exitY=1;exitDx=0;exitDy=0;entryX=1;entryY=0.128;entryDx=0;entryDy=0;curved=0;entryPerimeter=0;" edge="1" parent="1" source="jgxaxADgwJe4Hzebw44l-18" target="jgxaxADgwJe4Hzebw44l-8">
          <mxGeometry relative="1" as="geometry">
            <Array as="points">
              <mxPoint x="590" y="230" />
            </Array>
          </mxGeometry>
        </mxCell>
        <mxCell id="jgxaxADgwJe4Hzebw44l-18" value="Device Attribute Collection" style="rounded=1;whiteSpace=wrap;html=1;fillColor=#dae8fc;strokeColor=#6c8ebf;" vertex="1" parent="1">
          <mxGeometry x="560" y="130" width="120" height="60" as="geometry" />
        </mxCell>
        <mxCell id="jgxaxADgwJe4Hzebw44l-36" style="edgeStyle=orthogonalEdgeStyle;rounded=1;orthogonalLoop=1;jettySize=auto;html=1;exitX=0;exitY=0.5;exitDx=0;exitDy=0;entryX=0.75;entryY=1;entryDx=0;entryDy=0;curved=0;" edge="1" parent="1" source="jgxaxADgwJe4Hzebw44l-19" target="jgxaxADgwJe4Hzebw44l-24">
          <mxGeometry relative="1" as="geometry" />
        </mxCell>
        <mxCell id="jgxaxADgwJe4Hzebw44l-19" value="Device Attribute DB&lt;br&gt;(Inventory)" style="rounded=1;whiteSpace=wrap;html=1;fillColor=#d5e8d4;strokeColor=#82b366;" vertex="1" parent="1">
          <mxGeometry x="680" y="440" width="120" height="60" as="geometry" />
        </mxCell>
        <mxCell id="jgxaxADgwJe4Hzebw44l-35" style="edgeStyle=orthogonalEdgeStyle;rounded=0;orthogonalLoop=1;jettySize=auto;html=1;exitX=0.5;exitY=1;exitDx=0;exitDy=0;entryX=0.5;entryY=0;entryDx=0;entryDy=0;" edge="1" parent="1" source="jgxaxADgwJe4Hzebw44l-21" target="jgxaxADgwJe4Hzebw44l-19">
          <mxGeometry relative="1" as="geometry" />
        </mxCell>
        <mxCell id="jgxaxADgwJe4Hzebw44l-21" value="Service Now&lt;div&gt;Panorama&lt;/div&gt;&lt;div&gt;Firewalls&lt;/div&gt;&lt;div&gt;FireMon&lt;/div&gt;&lt;div&gt;Coolalerts&lt;/div&gt;" style="ellipse;whiteSpace=wrap;html=1;" vertex="1" parent="1">
          <mxGeometry x="680" y="230" width="120" height="80" as="geometry" />
        </mxCell>
        <mxCell id="jgxaxADgwJe4Hzebw44l-33" style="edgeStyle=orthogonalEdgeStyle;rounded=1;orthogonalLoop=1;jettySize=auto;html=1;exitX=0.75;exitY=0;exitDx=0;exitDy=0;entryX=0;entryY=0.5;entryDx=0;entryDy=0;curved=0;" edge="1" parent="1" source="jgxaxADgwJe4Hzebw44l-24" target="jgxaxADgwJe4Hzebw44l-21">
          <mxGeometry relative="1" as="geometry" />
        </mxCell>
        <mxCell id="jgxaxADgwJe4Hzebw44l-24" value="Feedback Code&lt;br&gt;(need better name)" style="rounded=1;whiteSpace=wrap;html=1;fillColor=#f5f5f5;fontColor=#333333;strokeColor=#666666;" vertex="1" parent="1">
          <mxGeometry x="540" y="290" width="120" height="60" as="geometry" />
        </mxCell>
        <mxCell id="jgxaxADgwJe4Hzebw44l-66" style="edgeStyle=orthogonalEdgeStyle;rounded=0;orthogonalLoop=1;jettySize=auto;html=1;exitX=0.5;exitY=0;exitDx=0;exitDy=0;entryX=0.5;entryY=1;entryDx=0;entryDy=0;" edge="1" parent="1" source="jgxaxADgwJe4Hzebw44l-27" target="jgxaxADgwJe4Hzebw44l-28">
          <mxGeometry relative="1" as="geometry" />
        </mxCell>
        <mxCell id="jgxaxADgwJe4Hzebw44l-27" value="Human Input" style="ellipse;whiteSpace=wrap;html=1;aspect=fixed;" vertex="1" parent="1">
          <mxGeometry x="700" y="690" width="80" height="80" as="geometry" />
        </mxCell>
        <mxCell id="jgxaxADgwJe4Hzebw44l-28" value="Metric to Attribute DB" style="rounded=1;whiteSpace=wrap;html=1;fillColor=#d5e8d4;strokeColor=#82b366;" vertex="1" parent="1">
          <mxGeometry x="680" y="600" width="120" height="60" as="geometry" />
        </mxCell>
        <mxCell id="jgxaxADgwJe4Hzebw44l-78" style="edgeStyle=orthogonalEdgeStyle;rounded=1;orthogonalLoop=1;jettySize=auto;html=1;exitX=0;exitY=0.5;exitDx=0;exitDy=0;entryX=0.5;entryY=1;entryDx=0;entryDy=0;curved=0;" edge="1" parent="1" source="jgxaxADgwJe4Hzebw44l-41" target="jgxaxADgwJe4Hzebw44l-70">
          <mxGeometry relative="1" as="geometry" />
        </mxCell>
        <mxCell id="jgxaxADgwJe4Hzebw44l-81" style="edgeStyle=orthogonalEdgeStyle;rounded=1;orthogonalLoop=1;jettySize=auto;html=1;exitX=0;exitY=0;exitDx=0;exitDy=0;entryX=1;entryY=0.75;entryDx=0;entryDy=0;curved=0;" edge="1" parent="1" source="jgxaxADgwJe4Hzebw44l-41" target="jgxaxADgwJe4Hzebw44l-8">
          <mxGeometry relative="1" as="geometry" />
        </mxCell>
        <mxCell id="jgxaxADgwJe4Hzebw44l-41" value="Smart Metric Collection Code" style="rounded=1;whiteSpace=wrap;html=1;fillColor=#d5e8d4;strokeColor=#82b366;" vertex="1" parent="1">
          <mxGeometry x="550" y="520" width="120" height="60" as="geometry" />
        </mxCell>
        <mxCell id="jgxaxADgwJe4Hzebw44l-50" value="" style="verticalLabelPosition=bottom;html=1;verticalAlign=top;strokeWidth=2;shape=mxgraph.lean_mapping.physical_pull;pointerEvents=1;direction=north;rotation=304;" vertex="1" parent="1">
          <mxGeometry x="700" y="510.00000000000006" width="80" height="80" as="geometry" />
        </mxCell>
        <mxCell id="jgxaxADgwJe4Hzebw44l-59" style="rounded=0;orthogonalLoop=1;jettySize=auto;html=1;exitX=0;exitY=0.5;exitDx=0;exitDy=0;entryX=0.99;entryY=0.406;entryDx=0;entryDy=0;entryPerimeter=0;" edge="1" parent="1" source="jgxaxADgwJe4Hzebw44l-24" target="jgxaxADgwJe4Hzebw44l-8">
          <mxGeometry relative="1" as="geometry" />
        </mxCell>
        <mxCell id="jgxaxADgwJe4Hzebw44l-71" style="edgeStyle=orthogonalEdgeStyle;rounded=0;orthogonalLoop=1;jettySize=auto;html=1;exitX=1;exitY=0.5;exitDx=0;exitDy=0;entryX=0;entryY=0.5;entryDx=0;entryDy=0;" edge="1" parent="1" source="jgxaxADgwJe4Hzebw44l-62" target="jgxaxADgwJe4Hzebw44l-70">
          <mxGeometry relative="1" as="geometry" />
        </mxCell>
        <mxCell id="jgxaxADgwJe4Hzebw44l-62" value="Panoramas" style="ellipse;whiteSpace=wrap;html=1;" vertex="1" parent="1">
          <mxGeometry x="100" y="290" width="80" height="50" as="geometry" />
        </mxCell>
        <mxCell id="jgxaxADgwJe4Hzebw44l-79" style="edgeStyle=orthogonalEdgeStyle;rounded=1;orthogonalLoop=1;jettySize=auto;html=1;exitX=0.65;exitY=1.08;exitDx=0;exitDy=0;entryX=0;entryY=0.25;entryDx=0;entryDy=0;curved=0;exitPerimeter=0;" edge="1" parent="1" source="jgxaxADgwJe4Hzebw44l-70" target="jgxaxADgwJe4Hzebw44l-41">
          <mxGeometry relative="1" as="geometry">
            <Array as="points">
              <mxPoint x="260" y="344" />
              <mxPoint x="260" y="535" />
            </Array>
          </mxGeometry>
        </mxCell>
        <mxCell id="jgxaxADgwJe4Hzebw44l-70" value="Firewalls" style="ellipse;whiteSpace=wrap;html=1;" vertex="1" parent="1">
          <mxGeometry x="200" y="290" width="80" height="50" as="geometry" />
        </mxCell>
        <mxCell id="jgxaxADgwJe4Hzebw44l-84" style="edgeStyle=orthogonalEdgeStyle;rounded=1;orthogonalLoop=1;jettySize=auto;html=1;exitX=0.25;exitY=1;exitDx=0;exitDy=0;entryX=0.5;entryY=0;entryDx=0;entryDy=0;curved=0;" edge="1" parent="1" source="jgxaxADgwJe4Hzebw44l-82" target="jgxaxADgwJe4Hzebw44l-62">
          <mxGeometry relative="1" as="geometry" />
        </mxCell>
        <mxCell id="jgxaxADgwJe4Hzebw44l-83" style="edgeStyle=orthogonalEdgeStyle;rounded=1;orthogonalLoop=1;jettySize=auto;html=1;exitX=0.75;exitY=1;exitDx=0;exitDy=0;entryX=-0.005;entryY=0.106;entryDx=0;entryDy=0;entryPerimeter=0;curved=0;" edge="1" parent="1" source="jgxaxADgwJe4Hzebw44l-82" target="jgxaxADgwJe4Hzebw44l-8">
          <mxGeometry relative="1" as="geometry" />
        </mxCell>
        <mxCell id="Qaop3SIBf-g17rU-zxT1-11" value="" style="group;fillColor=#f5f5f5;strokeColor=#666666;fontColor=#333333;" connectable="0" vertex="1" parent="1">
          <mxGeometry x="70" y="30" width="200" height="160" as="geometry" />
        </mxCell>
        <mxCell id="jgxaxADgwJe4Hzebw44l-82" value="&lt;b&gt;Firewall Change Producers&lt;/b&gt;" style="rounded=0;whiteSpace=wrap;html=1;verticalAlign=bottom;labelPosition=center;verticalLabelPosition=top;align=center;textDirection=ltr;" vertex="1" parent="Qaop3SIBf-g17rU-zxT1-11">
          <mxGeometry width="200" height="160" as="geometry" />
        </mxCell>
        <mxCell id="jgxaxADgwJe4Hzebw44l-1" value="TS Agent Updater" style="rounded=1;whiteSpace=wrap;html=1;fillColor=#fff2cc;strokeColor=#d6b656;labelBorderColor=none;" vertex="1" parent="Qaop3SIBf-g17rU-zxT1-11">
          <mxGeometry x="60" y="90" width="120" height="60" as="geometry" />
        </mxCell>
        <mxCell id="jgxaxADgwJe4Hzebw44l-52" value="Server Decomission" style="rounded=1;whiteSpace=wrap;html=1;fillColor=#d5e8d4;strokeColor=#82b366;" vertex="1" parent="Qaop3SIBf-g17rU-zxT1-11">
          <mxGeometry x="20" y="10" width="120" height="60" as="geometry" />
        </mxCell>
        <mxCell id="Qaop3SIBf-g17rU-zxT1-15" value="" style="image;html=1;image=img/lib/clip_art/general/Star_128x128.png" vertex="1" parent="Qaop3SIBf-g17rU-zxT1-11">
          <mxGeometry x="170" y="80" width="20" height="20" as="geometry" />
        </mxCell>
        <mxCell id="Qaop3SIBf-g17rU-zxT1-13" value="" style="image;html=1;image=img/lib/clip_art/general/Star_128x128.png" vertex="1" parent="1">
          <mxGeometry x="790" y="430" width="20" height="20" as="geometry" />
        </mxCell>
        <mxCell id="Qaop3SIBf-g17rU-zxT1-26" value="" style="image;html=1;image=img/lib/clip_art/general/Star_128x128.png" vertex="1" parent="1">
          <mxGeometry x="660" y="510" width="20" height="20" as="geometry" />
        </mxCell>
        <mxCell id="Qaop3SIBf-g17rU-zxT1-27" value="" style="image;html=1;image=img/lib/clip_art/general/Star_128x128.png" vertex="1" parent="1">
          <mxGeometry x="790" y="590" width="20" height="20" as="geometry" />
        </mxCell>
        <mxCell id="Qaop3SIBf-g17rU-zxT1-43" value="" style="group" connectable="0" vertex="1" parent="1">
          <mxGeometry x="40" y="560" width="160" height="130" as="geometry" />
        </mxCell>
        <mxCell id="Qaop3SIBf-g17rU-zxT1-35" value="" style="group" connectable="0" vertex="1" parent="Qaop3SIBf-g17rU-zxT1-43">
          <mxGeometry y="30" width="160" height="100" as="geometry" />
        </mxCell>
        <mxCell id="Qaop3SIBf-g17rU-zxT1-3" value="Production" style="rounded=0;whiteSpace=wrap;html=1;fillColor=#d5e8d4;strokeColor=#82b366;container=0;" vertex="1" parent="Qaop3SIBf-g17rU-zxT1-35">
          <mxGeometry width="160" height="20" as="geometry" />
        </mxCell>
        <mxCell id="Qaop3SIBf-g17rU-zxT1-4" value="MVP / AWS Dev Env" style="rounded=0;whiteSpace=wrap;html=1;fillColor=#fff2cc;strokeColor=#d6b656;container=0;" vertex="1" parent="Qaop3SIBf-g17rU-zxT1-35">
          <mxGeometry y="20" width="160" height="20" as="geometry" />
        </mxCell>
        <mxCell id="Qaop3SIBf-g17rU-zxT1-5" value="Active Development" style="rounded=0;whiteSpace=wrap;html=1;fillColor=#dae8fc;strokeColor=#6c8ebf;container=0;" vertex="1" parent="Qaop3SIBf-g17rU-zxT1-35">
          <mxGeometry y="40" width="160" height="20" as="geometry" />
        </mxCell>
        <mxCell id="Qaop3SIBf-g17rU-zxT1-6" value="Research &amp;amp; Design" style="rounded=0;whiteSpace=wrap;html=1;fillColor=#e1d5e7;strokeColor=#9673a6;container=0;" vertex="1" parent="Qaop3SIBf-g17rU-zxT1-35">
          <mxGeometry y="60" width="160" height="20" as="geometry" />
        </mxCell>
        <mxCell id="Qaop3SIBf-g17rU-zxT1-7" value="Backlog" style="rounded=0;whiteSpace=wrap;html=1;fillColor=#f5f5f5;fontColor=#333333;strokeColor=#666666;container=0;" vertex="1" parent="Qaop3SIBf-g17rU-zxT1-35">
          <mxGeometry y="80" width="160" height="20" as="geometry" />
        </mxCell>
        <mxCell id="Qaop3SIBf-g17rU-zxT1-42" value="" style="group" connectable="0" vertex="1" parent="Qaop3SIBf-g17rU-zxT1-43">
          <mxGeometry width="160" height="20" as="geometry" />
        </mxCell>
        <mxCell id="Qaop3SIBf-g17rU-zxT1-34" value="AWS" style="rounded=0;whiteSpace=wrap;html=1;container=0;" vertex="1" parent="Qaop3SIBf-g17rU-zxT1-42">
          <mxGeometry width="160" height="20" as="geometry" />
        </mxCell>
        <mxCell id="Qaop3SIBf-g17rU-zxT1-25" value="" style="image;html=1;image=img/lib/clip_art/general/Star_128x128.png" vertex="1" parent="Qaop3SIBf-g17rU-zxT1-42">
          <mxGeometry width="20" height="20" as="geometry" />
        </mxCell>
        <mxCell id="Qaop3SIBf-g17rU-zxT1-44" value="" style="image;html=1;image=img/lib/clip_art/general/Star_128x128.png" vertex="1" parent="1">
          <mxGeometry x="650" y="280" width="20" height="20" as="geometry" />
        </mxCell>
        <mxCell id="Qaop3SIBf-g17rU-zxT1-45" value="" style="image;html=1;image=img/lib/clip_art/general/Star_128x128.png" vertex="1" parent="1">
          <mxGeometry x="670" y="120" width="20" height="20" as="geometry" />
        </mxCell>
      </root>
    </mxGraphModel>
  </diagram>
</mxfile>
